<?xml version="1.0" standalone="no"?>
<!DOCTYPE svg PUBLIC "-//W3C//DTD SVG 20010904//EN"
 "http://www.w3.org/TR/2001/REC-SVG-20010904/DTD/svg10.dtd">
<svg version="1.0" xmlns="http://www.w3.org/2000/svg"
 width="1200.000000pt" height="1200.000000pt" viewBox="0 0 1200.000000 1200.000000"
 preserveAspectRatio="xMidYMid meet">
<metadata>
Created by potrace 1.14, written by Peter Selinger 2001-2017
</metadata>
<g transform="translate(0.000000,1200.000000) scale(0.100000,-0.100000)"
fill="#000000" stroke="none">
<path d="M0 6000 l0 -6000 6000 0 6000 0 0 6000 0 6000 -6000 0 -6000 0 0
-6000z m6034 5554 c12 -5 16 -20 16 -60 l0 -54 55 0 c49 0 55 -2 61 -24 12
-51 3 -61 -59 -64 l-58 -3 3 -96 3 -96 37 -13 c94 -32 160 -124 162 -223 0
-31 -3 -68 -7 -83 -6 -21 -4 -28 7 -28 8 0 17 9 21 20 19 60 121 81 168 34 14
-14 29 -39 32 -55 7 -31 32 -39 42 -14 7 21 55 45 88 45 56 0 115 -55 115
-106 0 -12 6 -15 23 -10 106 31 177 -4 196 -97 6 -30 9 -32 58 -33 62 -1 112
-30 139 -79 10 -19 22 -35 26 -35 4 0 15 14 23 30 33 64 126 77 176 24 19 -20
24 -36 24 -77 0 -47 8 -66 27 -67 4 0 10 9 13 21 4 11 21 29 38 40 92 56 208
-31 178 -133 -15 -49 -6 -66 23 -40 52 48 104 54 157 19 65 -43 83 -122 42
-185 -19 -31 -12 -36 32 -22 98 32 205 -46 205 -150 0 -47 -27 -104 -61 -128
-29 -20 -23 -29 27 -35 90 -10 166 -92 168 -181 1 -67 -11 -92 -80 -168 -105
-116 -115 -135 -102 -186 27 -106 -59 -222 -164 -222 -27 0 -44 -11 -96 -64
-64 -64 -133 -109 -188 -120 -23 -5 -59 4 -147 38 -395 153 -860 244 -1335
262 -491 18 -1099 -82 -1554 -256 -142 -55 -157 -56 -233 -17 -22 11 -72 51
-111 88 -58 57 -76 69 -103 69 -104 0 -186 113 -162 222 12 51 1 72 -102 185
-50 55 -67 82 -75 118 -24 113 50 220 163 233 25 2 45 8 45 12 0 3 -12 17 -26
31 -54 50 -68 116 -40 183 28 68 115 108 187 87 50 -15 57 -10 34 26 -25 37
-24 106 2 141 48 66 139 78 193 27 33 -32 45 -20 31 31 -20 74 38 154 113 154
36 0 90 -30 106 -59 18 -34 41 -15 34 29 -19 115 129 176 194 80 29 -44 40
-48 51 -18 12 32 76 88 104 90 12 1 37 2 55 2 31 1 35 5 50 50 21 62 58 91
115 90 23 0 54 -3 70 -8 22 -7 27 -5 27 8 0 52 60 106 117 106 31 0 93 -34 93
-50 0 -22 28 -8 35 18 3 15 18 39 33 55 46 48 147 29 167 -33 4 -11 13 -20 21
-20 12 0 13 8 7 38 -27 126 41 258 151 295 l41 14 3 96 3 97 -55 0 c-51 0 -56
2 -62 24 -3 14 -3 34 1 45 5 18 14 21 61 21 l54 0 0 54 c0 34 5 56 13 59 18 8
43 8 61 1z m-2838 -2499 c51 -21 73 -77 74 -182 0 -74 2 -83 18 -83 24 0 43
22 76 88 57 114 138 172 239 172 71 0 112 -16 167 -67 114 -102 134 -288 42
-387 -36 -39 -118 -76 -167 -76 -54 0 -112 -17 -119 -35 -6 -16 9 -26 69 -45
99 -30 155 -84 155 -146 0 -72 -51 -158 -113 -191 -20 -11 -56 -17 -97 -17
-55 0 -79 6 -155 41 -150 68 -166 67 -90 -7 54 -53 71 -96 56 -143 -13 -39
-64 -91 -104 -106 -47 -18 -129 -13 -207 14 -101 34 -103 34 -79 -20 26 -59
14 -104 -37 -136 -50 -30 -155 -24 -241 15 l-62 28 -35 -27 c-51 -39 -74 -14
-42 44 13 23 10 28 -32 80 -25 31 -54 76 -65 101 -41 90 -18 188 50 217 33 13
52 13 106 -3 24 -7 22 10 -14 118 -46 138 -34 213 47 292 73 71 138 66 220
-15 65 -64 72 -52 39 73 -26 99 -32 189 -14 235 29 77 82 126 177 164 58 22
92 23 138 4z m5758 -5 c164 -62 223 -195 166 -380 -11 -36 -20 -82 -20 -104
l0 -38 59 55 c33 30 72 57 87 60 64 12 138 -35 178 -115 34 -68 34 -131 0
-223 -14 -38 -28 -83 -31 -99 -5 -24 -3 -27 13 -23 55 17 74 17 107 4 46 -20
71 -66 71 -132 0 -59 -24 -110 -88 -188 -40 -50 -43 -55 -30 -78 31 -56 7 -80
-42 -43 l-31 23 -74 -29 c-198 -78 -338 2 -260 149 15 28 4 28 -89 -4 -76 -26
-160 -32 -203 -16 -41 16 -96 71 -106 106 -14 51 -3 82 50 139 27 30 49 57 49
61 0 9 -33 -2 -130 -45 -47 -21 -106 -41 -131 -45 -94 -14 -174 30 -215 120
-54 115 -18 180 129 234 39 14 72 31 74 38 6 18 -30 33 -112 43 -87 11 -140
35 -182 84 -42 47 -56 96 -51 175 11 153 126 271 263 271 103 0 183 -57 241
-172 33 -66 52 -88 76 -88 16 0 18 9 18 83 0 102 22 156 71 180 45 22 77 21
143 -3z m-2715 -41 c364 -21 748 -98 1075 -215 77 -28 107 -35 140 -30 l41 6
33 -88 c17 -49 32 -92 32 -95 0 -3 -38 -27 -86 -53 l-85 -46 -32 36 c-27 30
-52 42 -152 75 -296 96 -538 147 -845 176 -213 21 -259 20 -311 -10 l-44 -24
-44 24 c-50 29 -91 31 -271 14 -324 -29 -607 -88 -915 -191 -70 -23 -97 -38
-121 -65 l-31 -36 -87 48 c-47 25 -86 50 -85 53 0 4 15 45 32 92 l33 85 40 -3
c28 -2 85 12 185 46 336 115 669 179 1040 201 129 8 162 13 190 30 l33 20 35
-20 c29 -17 63 -22 200 -30z m163 -375 c280 -29 534 -83 788 -167 144 -48 155
-54 158 -78 6 -54 -16 -55 -167 -5 -245 80 -491 134 -771 168 -140 17 -659 17
-805 0 -273 -32 -537 -90 -777 -169 -116 -38 -140 -44 -153 -33 -9 8 -15 25
-13 39 3 23 13 30 83 54 279 99 593 165 945 200 111 11 574 6 712 -9z m-4274
-521 c64 -15 153 -108 167 -173 4 -19 14 -30 30 -34 78 -20 69 -185 -12 -244
l-28 -20 23 -25 c13 -14 22 -33 20 -44 -6 -30 -42 -27 -74 6 -26 28 -33 30
-74 25 -129 -17 -253 93 -206 183 12 23 13 39 6 64 -13 46 -13 113 2 160 14
48 83 123 104 115 9 -3 28 -9 42 -13z m7852 -23 c22 -23 44 -58 50 -78 13 -47
13 -133 0 -167 -7 -20 -6 -32 6 -50 24 -37 10 -91 -35 -136 -43 -43 -106 -64
-169 -55 -40 5 -47 3 -73 -25 -19 -20 -36 -29 -51 -27 -31 4 -34 35 -7 64 l23
25 -26 22 c-15 12 -36 38 -47 57 -39 65 -19 173 33 186 16 4 27 18 37 47 20
62 111 150 169 164 25 6 46 11 48 12 2 0 21 -17 42 -39z m-7214 -501 c15 -14
40 -22 76 -25 73 -6 156 -49 190 -99 32 -47 34 -66 11 -103 -46 -74 -128 -122
-209 -122 -27 0 -41 -7 -56 -25 -16 -20 -28 -25 -65 -25 -25 0 -61 8 -80 17
-43 20 -90 90 -98 147 -6 36 -11 43 -46 58 -45 19 -58 43 -37 65 14 13 19 13
48 -2 17 -9 33 -15 34 -13 1 2 10 22 20 45 11 23 26 49 35 57 54 49 139 61
177 25z m6618 -2 c34 -19 55 -47 93 -125 0 -2 15 4 33 13 25 13 35 14 46 4 28
-23 5 -61 -47 -74 -22 -5 -28 -14 -33 -47 -16 -101 -74 -159 -166 -166 -52 -4
-59 -2 -77 22 -16 19 -30 26 -57 26 -81 0 -163 48 -209 122 -23 37 -21 56 11
103 34 50 117 93 191 99 37 3 60 10 74 25 29 28 90 28 141 -2z m-7097 -181
c104 -49 172 -145 173 -244 0 -91 -37 -151 -130 -214 -50 -34 -70 -55 -70 -75
0 -11 22 -12 108 -8 117 7 140 1 175 -46 44 -60 38 -177 -12 -239 -46 -57
-103 -80 -227 -91 -137 -13 -155 -22 -85 -43 81 -24 119 -51 132 -97 17 -55
-2 -113 -55 -166 -42 -42 -76 -55 -208 -83 l-57 -11 44 -43 c34 -32 45 -50 45
-73 0 -82 -103 -151 -239 -160 -75 -5 -80 -7 -86 -32 -15 -61 -51 -62 -61 -1
-6 35 -10 40 -61 59 -143 55 -217 155 -179 244 14 35 46 58 98 71 37 9 29 24
-47 85 -87 69 -125 135 -125 216 1 108 55 185 130 185 21 0 57 -7 80 -15 23
-8 46 -15 51 -15 24 0 2 38 -61 105 -39 41 -82 99 -95 127 -59 126 -11 273
111 344 83 49 140 20 217 -110 l41 -69 18 23 c15 18 18 41 18 119 0 80 4 105
24 146 24 53 70 99 121 121 51 22 153 17 212 -10z m7651 8 c47 -19 88 -58 115
-109 16 -31 22 -65 27 -152 4 -85 9 -117 22 -129 15 -15 19 -11 56 52 73 125
130 156 209 116 86 -44 142 -139 143 -240 0 -84 -26 -136 -117 -233 -66 -71
-88 -109 -64 -109 5 0 28 7 51 15 23 8 59 15 80 15 75 0 129 -77 130 -185 0
-79 -37 -144 -122 -215 -80 -67 -87 -78 -51 -86 103 -25 136 -100 87 -196 -20
-39 -97 -94 -164 -119 -54 -20 -58 -23 -64 -59 -10 -61 -46 -60 -61 1 -6 25
-11 27 -86 32 -137 9 -239 78 -239 160 0 23 11 41 46 73 l45 42 -78 17 c-117
24 -158 42 -197 85 -31 35 -56 91 -56 128 0 29 31 79 60 95 16 10 53 25 81 33
28 9 48 19 43 24 -5 4 -60 13 -123 18 -131 12 -185 34 -235 95 -28 35 -31 47
-34 115 -3 68 -1 81 20 112 38 56 58 62 181 55 94 -5 107 -3 107 11 0 16 -16
32 -90 86 -99 74 -135 180 -95 283 22 59 92 130 158 160 62 29 157 33 215 9z
m-5888 -388 c0 -33 -1 -34 -58 -45 -72 -14 -140 -48 -164 -81 -31 -43 -38
-126 -36 -403 l3 -267 213 229 c117 125 233 255 258 287 49 66 94 149 94 175
0 25 -44 56 -90 64 -38 6 -40 9 -40 41 l0 34 330 0 330 0 0 -33 c0 -33 -1 -33
-72 -50 -90 -21 -193 -71 -278 -136 -36 -27 -165 -150 -288 -273 l-223 -224
284 -314 c446 -495 556 -591 699 -609 29 -3 52 -9 51 -13 -2 -5 -3 -19 -3 -32
0 -17 -7 -26 -25 -30 -44 -11 -270 -7 -321 5 -71 17 -161 62 -222 111 -29 24
-198 200 -375 393 l-322 350 -3 -275 c-3 -310 4 -363 50 -415 33 -38 117 -70
214 -81 53 -7 54 -7 54 -40 l0 -34 -441 0 -440 0 3 31 c3 32 4 32 89 49 127
26 161 48 196 125 16 37 18 88 21 585 4 565 -2 676 -36 734 -25 43 -83 72
-185 92 -83 16 -87 18 -87 44 0 15 3 30 7 33 3 4 188 7 410 7 l403 0 0 -34z
m2594 -28 c3 -35 11 -141 17 -237 12 -185 10 -195 -35 -189 -14 2 -25 21 -41
68 -48 142 -109 221 -204 264 -77 34 -148 46 -284 46 l-108 0 3 -672 c3 -666
3 -673 24 -713 12 -22 30 -48 41 -57 33 -30 110 -58 193 -70 l80 -12 0 -33 0
-33 -465 0 -465 0 0 35 c0 31 3 35 28 35 51 0 182 37 220 63 47 30 71 77 83
160 5 34 9 340 9 680 l0 617 -117 0 c-194 0 -293 -31 -377 -117 -39 -39 -95
-146 -117 -221 -12 -41 -14 -43 -43 -38 -16 4 -30 7 -31 9 -1 1 5 109 13 240
l15 237 778 0 777 0 6 -62z m1086 27 c0 -32 -3 -35 -37 -41 -179 -30 -236 -57
-265 -121 -18 -42 -21 -73 -26 -305 l-5 -258 447 0 446 0 0 243 c0 133 -5 260
-10 281 -20 86 -77 125 -226 151 l-95 18 3 31 3 31 438 3 437 2 0 -34 c0 -30
-4 -35 -27 -40 -16 -3 -53 -10 -83 -16 -85 -16 -131 -47 -160 -105 l-25 -50 0
-595 c0 -327 4 -612 8 -633 17 -80 105 -138 232 -153 54 -7 55 -7 55 -40 l0
-34 -441 0 -440 0 3 32 c3 32 4 33 76 45 134 22 200 53 230 106 15 28 17 70
20 325 l3 292 -447 0 -447 0 5 -284 c5 -251 8 -289 24 -323 32 -64 88 -92 232
-115 l72 -12 0 -33 0 -33 -441 0 -440 0 3 31 c3 32 4 32 91 50 141 28 188 69
204 177 4 31 8 307 8 612 0 604 -1 612 -56 675 -32 36 -106 65 -201 79 -47 7
-48 8 -48 42 l0 34 440 0 440 0 0 -35z m-6410 -1176 c25 -5 70 -27 100 -47 33
-22 68 -37 88 -38 38 -1 78 -34 98 -81 18 -41 18 -80 -1 -132 l-14 -41 31 -8
c42 -11 59 -39 35 -57 -15 -11 -26 -11 -60 -1 -39 12 -44 11 -82 -15 -85 -57
-169 -58 -235 -3 -23 20 -30 34 -30 61 0 25 -7 40 -25 54 -13 11 -38 49 -56
84 -29 59 -31 71 -25 127 3 34 11 67 16 73 10 9 80 32 105 34 6 0 30 -4 55
-10z m9468 0 c26 -7 53 -17 59 -23 7 -6 16 -40 19 -74 6 -56 4 -68 -25 -127
-18 -35 -42 -72 -55 -82 -16 -13 -23 -29 -23 -52 0 -26 -8 -41 -31 -62 -65
-59 -158 -58 -233 1 -36 28 -37 29 -83 15 -40 -12 -48 -12 -61 1 -26 26 -14
46 37 58 l27 6 -16 45 c-22 65 -11 127 31 173 24 26 41 35 67 36 20 1 53 14
79 32 52 35 101 55 153 63 5 0 29 -4 55 -10z m-8456 -114 l40 -27 -4 -58 c-5
-73 -45 -141 -111 -190 -30 -22 -47 -43 -47 -56 0 -29 -41 -64 -87 -74 -60
-14 -118 6 -172 58 -42 41 -50 45 -92 43 -29 -2 -50 3 -57 12 -20 23 -4 46 35
49 l36 3 1 65 c1 77 27 126 81 156 29 15 40 16 64 7 24 -9 34 -8 52 5 70 49
193 52 261 7z m7587 3 c37 -19 51 -22 74 -14 22 8 35 6 63 -9 53 -29 79 -78
80 -155 l1 -65 36 -3 c73 -6 54 -65 -20 -60 -41 3 -48 -1 -92 -43 -57 -55
-116 -74 -177 -58 -47 13 -84 45 -84 73 0 13 -17 34 -47 56 -66 49 -106 117
-111 190 l-4 58 39 25 c21 14 48 27 59 30 40 12 137 -1 183 -25z m-8043 -441
c132 -67 168 -201 95 -346 -57 -112 -38 -133 54 -62 77 59 131 77 180 61 61
-20 124 -118 125 -193 0 -83 -45 -143 -171 -228 -99 -66 -117 -85 -73 -75 16
3 54 9 85 12 98 11 151 -38 152 -141 1 -71 -28 -120 -118 -201 l-77 -68 49
-11 c63 -14 72 -21 89 -61 30 -72 -16 -157 -130 -241 -59 -44 -61 -46 -61 -91
0 -61 -27 -70 -51 -19 l-17 34 -106 -4 c-97 -4 -110 -3 -151 19 -53 27 -90 78
-90 124 0 25 10 45 36 74 20 22 35 42 33 45 -3 2 -46 13 -96 24 -148 32 -203
71 -238 170 -40 113 3 190 116 207 24 4 50 10 57 13 23 13 -19 38 -110 66
-164 49 -239 127 -246 255 -9 153 68 250 175 221 21 -6 63 -26 93 -45 30 -20
60 -36 66 -36 30 0 23 39 -22 125 -62 119 -70 188 -30 270 48 97 123 137 251
132 63 -3 91 -9 131 -30z m8505 18 c64 -23 104 -59 135 -120 39 -80 32 -156
-25 -259 -39 -71 -54 -136 -30 -136 5 0 39 18 75 39 36 22 83 42 104 46 98 16
166 -81 158 -225 -7 -128 -83 -207 -247 -256 -90 -28 -132 -52 -109 -65 7 -3
33 -9 58 -13 112 -17 156 -96 116 -209 -34 -93 -93 -136 -231 -166 -46 -10
-88 -22 -94 -26 -8 -4 0 -20 24 -46 47 -52 49 -103 5 -153 -47 -54 -102 -70
-215 -64 l-95 5 -21 -34 c-31 -50 -54 -41 -54 20 0 46 -2 50 -45 79 -117 79
-170 165 -149 242 12 44 28 56 90 70 l51 12 -71 63 c-119 106 -151 191 -106
284 31 66 92 80 219 51 44 -10 26 9 -73 75 -48 33 -101 74 -116 93 -75 88 -73
180 5 278 61 77 134 74 244 -10 36 -28 70 -50 76 -50 19 0 10 51 -21 113 -66
130 -41 254 65 325 26 17 62 36 80 41 49 15 150 12 197 -4z m-3623 -563 c8 -6
10 -22 6 -53 l-6 -45 -63 10 c-53 8 -68 6 -101 -10 -30 -14 -40 -26 -42 -47
-5 -39 18 -61 91 -87 123 -44 157 -80 157 -165 0 -116 -93 -185 -250 -185
-107 0 -110 2 -110 66 0 53 0 53 26 44 14 -6 54 -10 88 -10 80 0 116 24 116
76 0 33 -3 37 -57 60 -114 49 -148 69 -170 103 -28 42 -29 91 -4 148 32 70
102 102 226 102 44 1 86 -3 93 -7z m1900 -17 c109 -44 144 -172 77 -277 -34
-52 -115 -89 -199 -91 l-66 -2 0 -92 0 -93 -60 0 -60 0 0 284 0 285 48 4 c86
8 216 -1 260 -18z m-5175 -162 c36 -98 71 -197 78 -221 l13 -43 42 118 c23 65
59 163 81 218 l39 100 63 3 c49 2 62 0 59 -10 -3 -7 -52 -136 -109 -285 l-104
-273 -71 0 -71 0 -107 278 c-58 152 -106 280 -106 285 0 4 29 7 64 7 l63 0 66
-177z m877 132 l0 -45 -110 0 -110 0 0 -70 0 -69 103 -3 102 -3 3 -42 3 -43
-105 0 -106 0 0 -80 0 -80 110 0 110 0 0 -45 0 -45 -170 0 -170 0 0 285 0 285
170 0 170 0 0 -45z m580 -5 l0 -50 -80 0 -80 0 0 -235 0 -235 -60 0 -60 0 0
235 0 235 -75 0 -75 0 0 50 0 50 215 0 215 0 0 -50z m520 5 l0 -45 -110 0
-110 0 0 -70 0 -69 103 -3 102 -3 3 -42 3 -43 -105 0 -106 0 0 -80 0 -80 110
0 110 0 0 -45 0 -45 -170 0 -170 0 0 285 0 285 170 0 170 0 0 -45z m449 -58
c36 -56 93 -149 128 -206 l63 -104 0 207 0 206 55 0 55 0 0 -285 0 -286 -81 3
-82 3 -99 155 c-54 85 -110 176 -124 203 -13 26 -25 47 -27 47 -1 0 -1 -92 1
-205 l3 -205 -61 0 -60 0 0 285 0 285 83 0 82 0 64 -103z m1223 -23 l3 -127
105 127 104 126 75 0 74 0 -20 -22 c-11 -13 -63 -74 -117 -136 -84 -99 -95
-116 -84 -130 17 -22 197 -242 216 -264 14 -17 10 -18 -64 -18 l-79 0 -105
133 -105 132 -3 -132 -3 -133 -59 0 -60 0 0 285 0 285 60 0 59 0 3 -126z m938
-161 l107 -283 -67 0 -67 0 -19 53 -19 52 -121 3 -121 3 -19 -53 -19 -53 -61
-3 -61 -3 97 258 c54 142 103 271 109 286 11 27 12 28 83 25 l72 -3 106 -282z
m-5452 -627 c23 -35 27 -52 27 -116 0 -56 -5 -86 -21 -118 -16 -30 -20 -54
-17 -85 4 -36 1 -48 -22 -75 -15 -18 -40 -39 -56 -47 -36 -19 -120 -19 -165 0
-32 13 -36 13 -71 -11 -41 -28 -60 -28 -77 -1 -11 18 -1 31 44 57 13 7 12 11
-2 27 -73 80 -56 222 29 247 17 6 37 21 45 34 19 37 102 107 140 119 18 6 52
11 76 10 40 0 46 -3 70 -41z m6945 19 c36 -17 127 -107 127 -126 0 -5 7 -9 15
-9 97 0 128 -164 47 -253 -14 -16 -15 -20 -2 -27 45 -26 55 -39 44 -57 -17
-27 -36 -27 -78 2 -35 23 -39 24 -66 10 -37 -19 -133 -19 -169 0 -16 8 -41 29
-56 47 -23 27 -26 39 -22 77 4 34 0 56 -16 86 -16 30 -21 58 -22 115 0 65 4
81 27 117 27 42 28 42 80 39 29 -1 70 -11 91 -21z m-5797 -70 c67 -20 126 -72
155 -137 36 -81 34 -203 -4 -280 -53 -108 -149 -163 -282 -161 -84 1 -136 21
-187 70 -54 52 -79 118 -79 208 -1 104 22 167 81 226 80 80 201 109 316 74z
m746 -3 c6 -6 8 -29 4 -57 l-7 -46 -37 8 c-159 34 -253 -35 -254 -185 -1 -156
92 -216 273 -176 26 6 27 4 30 -45 l4 -51 -51 -11 c-74 -17 -200 -7 -249 18
-46 25 -85 63 -111 113 -15 28 -19 57 -19 140 0 95 3 110 27 156 39 74 101
123 185 144 46 11 191 6 205 -8z m2248 -18 c98 -53 136 -135 128 -276 -5 -93
-26 -144 -80 -199 -87 -87 -243 -110 -355 -53 -169 86 -192 353 -42 488 63 57
123 77 219 73 61 -3 86 -9 130 -33z m1368 30 c19 -6 22 -13 22 -56 l0 -50 -30
7 c-16 3 -55 6 -86 6 -44 0 -61 -4 -80 -22 -48 -45 -22 -86 79 -123 86 -32
126 -60 143 -102 19 -45 17 -81 -5 -130 -39 -85 -157 -134 -282 -118 l-64 9
-3 54 -3 54 33 -7 c115 -23 177 -11 200 38 20 46 0 68 -99 109 -50 21 -100 48
-112 61 -58 61 -40 184 34 232 59 38 182 57 253 38z m-3296 -116 l3 -113 138
-3 137 -3 0 116 0 115 60 0 60 0 -2 -287 -3 -288 -57 -3 -57 -3 -3 123 -3 123
-135 0 -135 0 -3 -123 -3 -123 -57 3 -57 3 -3 288 -2 287 60 0 59 0 3 -112z
m1030 -12 l3 -125 103 125 103 124 70 0 c38 0 69 -2 69 -5 0 -3 -50 -64 -111
-135 -61 -72 -109 -136 -106 -143 3 -7 51 -69 108 -137 57 -69 110 -133 118
-143 13 -16 8 -17 -65 -17 l-79 0 -108 137 -107 136 0 -136 0 -137 -60 0 -60
0 0 290 0 290 60 0 59 0 3 -124z m1425 37 c31 -49 90 -142 130 -207 l73 -120
0 207 0 207 55 0 55 0 0 -290 0 -290 -78 0 -78 0 -106 168 c-58 92 -116 186
-128 210 -12 23 -23 42 -24 42 0 0 -1 -93 -1 -207 l0 -208 -57 -3 -58 -3 0
291 0 290 80 0 80 0 57 -87z m1453 37 l0 -50 -80 0 -80 0 0 -240 0 -241 -57 3
-58 3 -3 238 -2 237 -80 0 -80 0 0 50 0 50 220 0 220 0 0 -50z m-6819 -242
c41 -23 89 -101 89 -145 0 -21 3 -22 45 -16 44 6 45 5 45 -21 0 -28 -29 -46
-75 -46 -18 0 -26 -8 -35 -36 -16 -46 -66 -103 -107 -120 -68 -29 -148 -10
-171 40 -6 14 -19 26 -29 26 -29 0 -98 39 -136 76 -28 28 -67 108 -67 138 0 2
17 21 38 40 56 54 107 70 202 63 61 -4 82 -2 91 9 17 21 66 17 110 -8z m8278
8 c9 -11 29 -13 86 -9 98 8 155 -9 206 -59 21 -21 39 -42 39 -47 0 -4 -7 -28
-16 -54 -21 -63 -82 -122 -153 -147 -39 -15 -61 -30 -73 -50 -11 -20 -27 -31
-53 -36 -88 -16 -162 25 -205 114 -19 39 -31 52 -47 52 -44 0 -75 19 -71 43 3
19 8 22 45 20 41 -2 42 -1 48 37 8 49 40 98 84 127 38 26 93 30 110 9z m-7692
-245 c76 -38 123 -128 123 -235 0 -48 20 -96 39 -96 5 0 23 33 40 73 35 78 52
103 91 130 53 37 148 10 212 -61 66 -73 64 -166 -7 -307 -25 -49 -45 -99 -45
-110 0 -16 6 -14 38 16 55 53 83 69 120 69 49 0 90 -25 123 -78 39 -62 39
-123 -1 -239 -16 -47 -30 -90 -30 -95 0 -5 13 -2 30 7 88 46 170 -13 170 -123
0 -45 -28 -133 -61 -190 l-23 -39 28 -33 c24 -30 26 -35 12 -48 -14 -14 -19
-14 -53 2 l-39 17 -66 -44 c-111 -75 -213 -83 -274 -22 -26 26 -32 82 -14 131
6 15 8 29 5 32 -3 3 -45 -7 -93 -23 -117 -38 -192 -39 -256 -1 -64 37 -106 97
-106 150 0 47 17 75 79 132 38 35 41 42 25 46 -10 3 -48 -1 -84 -9 -123 -26
-160 -30 -212 -22 -99 16 -185 105 -208 215 -15 73 -7 114 31 150 29 28 34 29
140 32 86 3 109 7 109 18 0 21 -33 50 -87 78 -60 30 -127 98 -148 150 -72 173
85 365 290 352 36 -2 78 -12 102 -25z m7239 0 c180 -80 223 -281 89 -416 -20
-19 -55 -44 -78 -56 -48 -24 -97 -67 -97 -85 0 -9 32 -13 110 -16 109 -3 110
-3 142 -36 30 -30 33 -37 32 -95 0 -105 -60 -204 -149 -247 -53 -26 -152 -28
-235 -5 -30 8 -75 15 -100 15 l-45 -1 45 -41 c63 -59 80 -87 80 -134 0 -53
-42 -113 -106 -150 -63 -37 -131 -37 -252 1 -50 15 -95 26 -98 22 -3 -3 -1
-14 5 -25 6 -12 11 -41 11 -67 0 -35 -6 -52 -24 -70 -35 -35 -97 -49 -157 -35
-46 11 -159 75 -173 98 -4 7 -19 4 -41 -10 -59 -34 -85 -6 -44 46 l21 27 -31
64 c-61 124 -65 222 -11 277 33 32 83 37 130 13 17 -9 30 -12 30 -7 0 4 -13
48 -30 97 -16 49 -30 110 -30 135 0 93 73 180 149 180 40 0 67 -15 124 -69 52
-49 49 -22 -8 95 -71 144 -73 233 -7 306 66 74 155 97 219 58 24 -14 44 -43
75 -110 24 -49 48 -90 54 -90 18 0 34 47 34 99 0 126 61 216 170 252 41 14
143 3 196 -20z m-6018 -858 c75 -46 122 -128 122 -213 0 -28 7 -46 25 -64 74
-74 -34 -234 -160 -236 -25 -1 -33 -7 -50 -43 -13 -28 -27 -43 -43 -45 -30 -5
-39 22 -19 63 15 32 15 33 -8 39 -35 9 -96 65 -111 103 -21 49 -17 88 11 121
14 17 25 37 25 45 0 84 54 187 117 223 47 28 57 28 91 7z m4641 -5 c22 -12 52
-38 67 -59 27 -40 54 -117 54 -157 0 -13 11 -37 25 -54 28 -33 32 -72 11 -121
-15 -38 -76 -94 -111 -103 -23 -6 -23 -7 -8 -39 19 -41 11 -68 -19 -63 -14 2
-29 18 -42 45 -18 35 -26 42 -51 43 -126 3 -234 162 -160 236 17 16 25 36 25
58 0 82 45 169 109 211 45 30 50 30 100 3z m-3874 -497 c84 -38 125 -124 125
-262 0 -81 8 -139 19 -139 4 0 15 25 25 55 20 66 66 121 106 130 67 15 160
-38 194 -110 10 -19 23 -70 31 -113 26 -136 19 -128 68 -77 51 52 85 58 137
23 49 -33 79 -99 92 -205 l12 -91 95 -23 c98 -25 132 -49 101 -70 -14 -9 -112
-6 -185 7 -29 5 -32 3 -54 -51 -30 -73 -89 -147 -134 -168 -47 -22 -119 -22
-147 1 -11 9 -29 42 -39 72 l-18 55 -74 -76 c-92 -95 -142 -123 -224 -122 -72
1 -123 21 -159 63 -32 39 -34 93 -6 168 20 51 20 52 1 52 -20 0 -50 -22 -129
-93 -24 -21 -68 -50 -99 -64 -45 -21 -66 -24 -121 -21 -80 5 -125 25 -180 79
-110 110 -90 197 63 276 41 21 75 41 75 45 0 20 -53 36 -135 41 -133 6 -214
50 -263 141 -28 52 -23 159 11 228 55 112 179 190 279 174 82 -13 127 -49 212
-166 19 -26 41 -46 55 -48 21 -3 22 -1 16 27 -4 17 -7 66 -8 109 -2 89 12 119
66 152 42 26 137 26 192 1z m3212 -1 c56 -34 68 -63 66 -162 -1 -48 -5 -97 -8
-109 -13 -39 36 -18 71 31 85 118 128 151 211 165 171 28 351 -186 304 -361
-30 -113 -122 -173 -274 -181 -84 -5 -137 -20 -137 -41 0 -4 34 -24 75 -45
152 -78 174 -164 69 -269 -61 -61 -104 -81 -186 -86 -55 -3 -76 0 -121 21 -31
14 -75 43 -99 64 -78 71 -109 93 -129 93 -18 0 -18 -1 1 -50 29 -73 26 -131
-6 -170 -36 -42 -87 -62 -159 -63 -81 -1 -132 27 -224 122 l-73 76 -19 -55
c-22 -69 -48 -90 -106 -90 -89 0 -148 50 -206 173 -31 65 -33 68 -62 63 -74
-13 -171 -16 -185 -7 -31 22 3 45 102 70 l95 23 11 91 c13 106 42 171 92 205
56 37 115 24 151 -35 11 -18 24 -31 29 -28 4 3 11 29 15 58 23 180 78 264 186
282 74 13 128 -35 160 -142 23 -80 39 -45 39 88 0 193 74 288 225 289 42 0 70
-6 92 -20z m-4338 -174 c15 -8 42 -31 59 -50 l31 -36 31 26 c25 21 33 24 45
14 24 -20 18 -46 -17 -76 -31 -25 -33 -31 -30 -80 4 -64 -21 -128 -67 -166
-40 -35 -93 -45 -124 -26 -16 11 -42 14 -103 10 -100 -6 -141 7 -194 59 -22
22 -40 41 -40 42 0 1 9 27 20 57 24 68 90 132 160 155 28 9 50 23 50 30 0 7
12 23 26 34 32 25 111 28 153 7z m5425 -7 c14 -11 26 -27 26 -34 0 -7 23 -21
52 -31 63 -20 151 -103 161 -149 3 -17 9 -38 12 -47 9 -23 -62 -92 -111 -108
-22 -8 -69 -11 -118 -8 -61 4 -87 1 -103 -10 -31 -19 -84 -9 -124 26 -46 38
-71 102 -67 166 3 49 1 55 -29 80 -36 30 -42 56 -18 76 12 10 20 7 45 -14 l31
-26 27 31 c41 49 81 69 138 69 37 0 59 -6 78 -21z m-3386 -174 c30 -14 72 -39
94 -57 31 -24 169 -172 318 -341 7 -8 62 45 112 108 l22 28 -100 96 c-108 105
-193 156 -279 168 -40 5 -44 8 -29 16 33 19 144 12 207 -13 46 -17 80 -43 156
-116 l97 -93 75 75 c41 41 94 88 119 104 60 38 152 62 210 55 55 -8 89 -25 49
-25 -42 0 -135 -36 -191 -74 -29 -19 -89 -71 -132 -115 l-79 -80 40 -48 c23
-26 52 -58 64 -70 l24 -22 125 141 c159 178 209 224 290 262 54 25 78 30 137
30 83 0 119 -18 54 -27 -54 -7 -144 -49 -208 -98 -51 -38 -343 -353 -343 -370
0 -10 193 -221 257 -281 55 -51 149 -103 206 -113 20 -4 37 -11 37 -15 0 -15
-76 -21 -125 -10 -109 24 -204 100 -386 307 l-46 52 -34 -37 c-19 -20 -47 -51
-62 -68 l-28 -31 65 -65 c68 -67 166 -124 231 -135 48 -8 44 -20 -9 -28 -84
-13 -203 38 -305 130 l-38 35 -19 -21 c-28 -31 -133 -105 -174 -121 -52 -22
-108 -30 -151 -23 -49 9 -50 21 -1 29 78 13 210 97 265 170 l25 32 -61 67 -62
67 -48 -57 c-194 -232 -342 -329 -469 -308 -48 8 -49 21 -1 30 57 10 151 62
206 113 67 63 257 271 257 282 0 15 -281 320 -334 363 -60 48 -156 94 -217
106 -44 8 -40 15 11 25 46 8 124 -5 178 -29z"/>
<path d="M5915 11071 c-16 -10 -41 -30 -54 -45 l-24 -26 61 0 62 0 0 45 c0 25
-3 45 -7 45 -5 0 -21 -8 -38 -19z"/>
<path d="M6050 11046 l0 -46 60 0 61 0 -17 23 c-23 29 -53 52 -81 61 -22 7
-23 4 -23 -38z"/>
<path d="M5820 10910 c0 -11 7 -36 14 -55 13 -29 20 -35 45 -35 27 0 31 3 31
29 0 15 9 40 21 55 l20 26 -65 0 c-60 0 -66 -2 -66 -20z"/>
<path d="M6079 10904 c12 -15 21 -40 21 -55 0 -26 3 -29 34 -29 29 0 36 4 45
31 6 18 11 43 11 55 0 23 -3 24 -66 24 l-65 0 20 -26z"/>
<path d="M5972 10864 c-20 -36 13 -73 51 -58 39 14 24 74 -18 74 -13 0 -28 -7
-33 -16z"/>
<path d="M5610 10815 c-26 -32 13 -81 48 -59 34 22 22 74 -18 74 -10 0 -23 -7
-30 -15z"/>
<path d="M6340 10815 c-26 -32 13 -81 48 -59 34 22 22 74 -18 74 -10 0 -23 -7
-30 -15z"/>
<path d="M5374 10762 c-18 -12 -25 -42 -14 -62 21 -39 82 -33 93 9 10 41 -43
78 -79 53z"/>
<path d="M6572 10758 c-20 -20 -14 -66 9 -79 44 -23 93 26 69 71 -12 23 -58
28 -78 8z"/>
<path d="M5972 10753 c-7 -3 -17 -16 -22 -29 -28 -72 77 -118 108 -49 25 55
-26 102 -86 78z"/>
<path d="M5698 10675 c-210 -35 -386 -127 -477 -248 -109 -144 -134 -344 -70
-548 15 -48 18 -72 11 -85 -7 -13 -3 -27 19 -57 16 -22 29 -50 29 -62 0 -20 4
-21 58 -18 46 3 65 -1 97 -19 98 -58 121 -182 49 -268 -37 -43 -78 -62 -135
-62 -54 1 -80 12 -122 51 l-29 26 8 -40 c33 -186 240 -223 374 -67 l43 50 49
-39 c115 -90 252 -87 324 7 22 28 29 49 32 97 l3 62 -26 -33 c-37 -45 -80 -65
-142 -65 -153 0 -230 184 -125 297 33 35 80 56 127 56 33 0 35 2 35 34 0 28
-6 38 -31 53 l-31 18 6 130 c14 274 47 518 90 665 l23 80 -56 -1 c-31 -1 -91
-7 -133 -14z"/>
<path d="M6140 10634 c43 -125 82 -402 96 -685 l7 -137 -32 -16 c-27 -15 -31
-22 -29 -51 2 -32 5 -35 35 -35 49 0 94 -22 131 -64 38 -43 46 -71 40 -136 -9
-91 -79 -153 -174 -153 -58 0 -109 26 -143 71 l-20 27 -1 -48 c0 -63 30 -120
82 -154 77 -51 202 -32 289 45 l35 31 44 -51 c133 -155 343 -118 375 67 l7 40
-21 -22 c-51 -53 -147 -71 -208 -39 -173 89 -99 350 94 334 43 -4 53 -2 53 11
0 17 37 82 52 92 5 3 4 16 -2 31 -9 19 -7 36 9 86 96 284 7 547 -233 691 -104
63 -325 121 -458 121 l-47 0 19 -56z"/>
<path d="M5156 10654 c-9 -8 -16 -28 -16 -44 0 -36 23 -60 59 -60 54 0 82 68
43 103 -23 21 -66 22 -86 1z"/>
<path d="M6767 10652 c-36 -40 -9 -102 44 -102 30 0 43 9 58 37 31 59 -57 115
-102 65z"/>
<path d="M5945 10577 c-59 -50 -19 -151 60 -151 77 0 118 93 65 149 -31 33
-88 34 -125 2z"/>
<path d="M4949 10501 c-31 -31 -36 -59 -17 -94 17 -33 39 -46 79 -47 76 0 113
97 54 147 -37 32 -80 30 -116 -6z"/>
<path d="M6945 10505 c-36 -35 -35 -96 1 -124 46 -36 105 -27 129 20 22 42 18
67 -14 100 -38 37 -82 39 -116 4z"/>
<path d="M4694 10486 c-3 -8 -4 -25 -2 -38 2 -19 9 -23 38 -23 33 0 35 2 35
35 0 32 -3 35 -33 38 -21 2 -34 -2 -38 -12z"/>
<path d="M7247 10494 c-12 -12 -8 -51 7 -64 8 -6 25 -10 38 -8 19 2 23 9 23
38 0 32 -3 35 -30 38 -17 2 -34 0 -38 -4z"/>
<path d="M4446 10384 c-22 -21 -20 -50 4 -74 24 -24 38 -25 68 -4 41 29 19 94
-33 94 -13 0 -31 -7 -39 -16z"/>
<path d="M7486 10384 c-22 -21 -20 -50 4 -74 24 -24 38 -25 68 -4 24 16 28 44
12 75 -13 23 -62 26 -84 3z"/>
<path d="M5931 10354 c-52 -43 -54 -118 -5 -167 74 -74 194 -20 194 89 0 28
-8 44 -34 70 -45 45 -108 48 -155 8z"/>
<path d="M4750 10327 c-375 -153 -563 -372 -589 -685 -5 -59 -11 -111 -12
-117 -2 -6 15 -29 39 -53 23 -23 42 -49 42 -57 0 -20 8 -19 55 5 49 25 98 25
150 1 123 -57 144 -209 41 -299 -44 -38 -71 -46 -139 -39 -40 3 -54 1 -63 -12
-28 -37 73 -111 152 -111 80 1 179 71 218 155 10 22 20 41 21 43 2 2 19 -8 39
-21 114 -78 283 -52 336 53 20 40 26 116 11 155 -8 19 -8 19 -16 -5 -9 -32
-51 -77 -89 -97 -38 -20 -114 -20 -152 0 -97 50 -130 171 -71 259 25 36 90 78
122 78 18 0 20 5 17 39 -3 32 -9 42 -32 51 -37 16 -86 67 -104 112 -33 77 -9
179 54 232 l29 24 -26 23 c-14 13 -31 36 -39 51 -18 35 -18 111 0 147 20 37
82 91 106 91 10 0 22 5 25 10 11 18 -18 10 -125 -33z"/>
<path d="M7135 10360 c3 -5 14 -10 23 -10 28 0 74 -36 99 -77 41 -68 28 -157
-30 -212 l-26 -23 29 -24 c63 -53 87 -155 54 -232 -18 -45 -67 -96 -104 -112
-23 -9 -29 -19 -32 -50 -3 -37 -2 -38 34 -44 50 -8 112 -68 129 -124 23 -79
-17 -168 -95 -209 -38 -20 -114 -20 -153 0 -35 19 -78 67 -89 99 -7 22 -7 22
-15 3 -15 -39 -9 -115 11 -155 11 -22 39 -52 62 -67 36 -24 51 -28 118 -28 65
0 85 4 136 30 l59 31 31 -56 c21 -38 47 -67 86 -94 92 -63 181 -60 254 9 31
29 34 36 23 53 -11 17 -20 19 -74 14 -72 -5 -106 8 -153 62 -76 87 -45 229 62
277 53 24 100 24 155 -1 24 -11 45 -19 46 -18 1 2 10 17 19 35 9 17 30 40 46
50 20 12 28 23 24 33 -3 8 -10 62 -14 120 -24 314 -215 536 -590 686 -111 45
-136 52 -125 34z"/>
<path d="M4830 10263 c-80 -72 -18 -196 88 -179 42 6 61 22 79 64 42 101 -85
188 -167 115z"/>
<path d="M7045 10268 c-53 -47 -49 -134 8 -168 47 -29 90 -26 129 9 28 25 33
36 33 76 0 40 -5 51 -33 76 -41 37 -98 40 -137 7z"/>
<path d="M4206 10228 c-22 -31 -20 -64 4 -88 41 -41 110 -13 110 44 0 41 -26
66 -68 66 -21 0 -36 -7 -46 -22z"/>
<path d="M7707 10232 c-37 -41 -6 -112 48 -112 55 0 87 77 47 113 -25 22 -75
21 -95 -1z"/>
<path d="M5975 10100 c-45 -10 -71 -30 -94 -71 -25 -43 -26 -77 -7 -124 17
-39 20 -40 56 -20 14 8 48 14 75 14 28 0 61 -6 75 -14 36 -20 39 -19 56 20 19
47 18 81 -7 124 -32 57 -91 84 -154 71z"/>
<path d="M4013 10015 c-28 -20 -46 -75 -34 -106 25 -67 113 -87 157 -36 34 40
33 100 -2 132 -31 29 -87 33 -121 10z"/>
<path d="M7876 10004 c-54 -55 -22 -148 55 -160 70 -12 128 70 95 135 -31 58
-104 70 -150 25z"/>
<path d="M4853 9984 c-96 -48 -99 -192 -5 -247 l32 -19 22 27 c23 30 90 64
125 65 26 0 37 28 28 73 -21 93 -118 142 -202 101z"/>
<path d="M7032 9983 c-38 -18 -58 -45 -72 -93 -13 -46 -3 -80 24 -80 34 -1
101 -35 124 -65 l22 -27 31 18 c49 29 72 67 72 117 0 110 -105 177 -201 130z"/>
<path d="M3898 9692 c-31 -18 -58 -67 -58 -104 0 -28 34 -87 63 -110 20 -15
23 -15 50 8 15 13 47 28 70 34 23 6 48 13 55 15 17 6 15 79 -2 114 -8 15 -26
35 -40 45 -33 21 -103 20 -138 -2z"/>
<path d="M7978 9694 c-15 -8 -35 -28 -43 -44 -23 -45 -18 -120 9 -120 30 0 89
-23 116 -46 l30 -26 31 33 c33 36 49 68 49 101 0 35 -31 88 -61 103 -36 19
-96 18 -131 -1z"/>
<path d="M5924 9666 c-26 -26 -34 -42 -34 -70 0 -49 23 -92 60 -111 82 -42
170 14 170 111 0 28 -8 44 -34 70 -29 29 -41 34 -81 34 -40 0 -52 -5 -81 -34z"/>
<path d="M5002 9594 c-12 -8 -29 -28 -37 -44 -53 -102 53 -208 155 -155 42 21
60 53 60 103 0 37 -6 50 -34 78 -28 28 -41 34 -78 34 -24 0 -54 -7 -66 -16z"/>
<path d="M6864 9576 c-39 -39 -45 -86 -19 -136 41 -79 160 -77 201 2 40 78
-14 168 -102 168 -39 0 -51 -5 -80 -34z"/>
<path d="M4066 9289 c-93 -86 -18 -232 103 -199 127 34 109 213 -22 227 -40 5
-48 2 -81 -28z"/>
<path d="M7813 9300 c-40 -24 -56 -53 -56 -101 0 -107 133 -153 206 -72 43 49
26 141 -32 176 -38 22 -79 21 -118 -3z"/>
<path d="M3081 8957 c-49 -16 -97 -66 -111 -115 -10 -37 -8 -56 14 -142 42
-159 31 -227 -41 -257 -50 -20 -77 -10 -143 53 -52 49 -61 54 -80 44 -31 -17
-60 -70 -60 -111 0 -20 14 -75 30 -122 35 -102 37 -140 10 -184 -24 -40 -60
-50 -119 -34 -47 12 -60 6 -61 -30 0 -24 47 -113 73 -137 l23 -22 80 102 c156
202 407 431 733 666 138 101 171 118 171 93 0 -5 -26 -28 -57 -51 -197 -149
-556 -494 -734 -706 -66 -78 -119 -146 -119 -152 0 -17 129 -54 162 -47 l28 7
-20 38 c-34 67 -24 117 30 145 40 21 66 19 162 -11 108 -35 152 -35 186 0 l26
26 -40 42 c-84 88 -95 134 -46 189 25 28 35 32 74 32 28 -1 74 -14 119 -33
165 -72 192 -75 240 -32 24 22 32 37 33 67 l1 39 -88 36 c-93 37 -137 73 -137
113 0 12 9 41 20 65 22 48 78 81 140 82 166 2 238 105 170 240 -40 77 -107
115 -175 100 -50 -11 -89 -51 -132 -133 -45 -86 -87 -119 -156 -125 -88 -7
-116 36 -117 180 0 36 -3 73 -6 82 -7 18 -33 19 -83 3z"/>
<path d="M8846 8954 c-3 -9 -6 -46 -6 -82 -1 -144 -29 -187 -117 -180 -68 6
-110 39 -152 120 -61 116 -125 160 -201 138 -70 -20 -132 -109 -133 -191 -1
-86 52 -133 162 -144 99 -10 147 -35 171 -87 11 -24 20 -53 20 -65 0 -41 -45
-78 -135 -113 -48 -17 -89 -38 -92 -46 -9 -24 7 -66 38 -97 27 -27 34 -29 78
-24 27 3 90 24 140 47 117 53 168 56 211 15 22 -21 30 -38 30 -65 0 -40 -15
-66 -74 -128 l-40 -42 26 -26 c34 -35 78 -35 186 0 99 31 127 32 170 6 50 -31
57 -62 28 -125 l-24 -53 25 -7 c14 -3 50 2 81 11 105 30 107 18 -32 182 -188
223 -577 595 -772 738 -22 17 -26 25 -18 34 9 9 48 -15 165 -100 339 -248 576
-463 733 -668 l80 -102 23 22 c26 24 73 113 73 137 -1 36 -14 42 -61 30 -59
-16 -95 -6 -119 34 -27 44 -25 79 10 180 17 48 30 104 30 124 0 43 -29 96 -60
113 -19 10 -28 5 -80 -44 -66 -63 -93 -73 -143 -53 -72 30 -82 97 -41 256 30
118 24 165 -31 216 -49 47 -137 70 -149 39z"/>
<path d="M5932 8942 c-34 -20 -61 -40 -59 -45 1 -5 32 -25 68 -44 l65 -36 67
37 c37 21 67 41 67 45 0 8 -123 81 -136 81 -5 -1 -37 -17 -72 -38z"/>
<path d="M5270 8908 c-131 -28 -150 -39 -150 -92 0 -39 26 -66 63 -66 27 0
150 24 178 35 17 7 39 46 39 71 0 21 -46 64 -67 63 -10 -1 -38 -5 -63 -11z"/>
<path d="M6651 8907 c-14 -6 -29 -25 -34 -41 -20 -59 38 -95 181 -112 63 -8
92 11 92 61 0 52 -18 65 -116 86 -107 22 -94 21 -123 6z"/>
<path d="M4551 8678 c-24 -66 -24 -66 18 -87 l39 -21 41 49 c23 27 41 51 41
54 0 2 -21 8 -47 11 -27 4 -56 9 -65 12 -12 4 -21 -2 -27 -18z"/>
<path d="M7378 8688 c-32 -6 -58 -13 -58 -17 0 -3 20 -28 43 -55 l42 -48 38
22 c20 12 37 25 37 30 0 16 -31 80 -38 79 -4 -1 -33 -6 -64 -11z"/>
<path d="M2066 8031 c-40 -44 -40 -158 0 -218 19 -29 59 -30 125 -2 46 20 49
24 49 58 -1 50 -30 110 -74 149 -42 36 -75 41 -100 13z"/>
<path d="M2286 7791 c-30 -33 -114 -63 -183 -65 -34 0 -63 -4 -63 -7 0 -20 46
-43 95 -47 88 -7 162 38 181 112 7 31 -6 34 -30 7z"/>
<path d="M9844 8018 c-44 -39 -73 -98 -74 -149 0 -32 4 -38 40 -54 22 -10 60
-19 83 -19 39 -1 43 1 62 39 27 54 26 146 -2 183 -29 40 -64 40 -109 0z"/>
<path d="M9695 7783 c9 -38 61 -90 103 -104 46 -15 127 -6 152 16 28 25 25 35
-9 29 -42 -9 -150 22 -199 56 -52 37 -56 37 -47 3z"/>
<path d="M2657 7532 c-36 -22 -57 -69 -57 -132 0 -58 18 -99 56 -129 39 -31
43 -26 23 32 -22 64 -24 128 -4 192 8 27 13 50 12 51 -1 2 -15 -5 -30 -14z"/>
<path d="M2753 7490 c-21 -8 -23 -16 -23 -82 0 -40 4 -79 9 -87 14 -22 127
-19 171 3 55 29 70 46 70 82 0 28 -7 38 -40 60 -43 29 -146 42 -187 24z"/>
<path d="M9320 7548 c0 -2 7 -25 15 -52 20 -65 18 -129 -4 -193 -10 -29 -14
-53 -10 -53 5 0 24 14 43 30 54 48 66 152 26 216 -11 18 -70 62 -70 52z"/>
<path d="M9115 7488 c-59 -22 -85 -47 -85 -82 0 -35 16 -54 65 -78 69 -34 169
-32 181 4 9 31 6 140 -5 151 -15 15 -121 19 -156 5z"/>
<path d="M2126 7330 c-73 -23 -98 -74 -100 -205 -2 -81 -7 -109 -22 -136 -25
-42 -78 -79 -113 -79 -41 0 -66 23 -121 115 -29 48 -58 85 -67 85 -25 0 -90
-73 -102 -115 -19 -70 1 -115 95 -216 111 -119 125 -174 63 -240 -25 -27 -34
-30 -71 -27 -24 3 -65 11 -91 19 -46 13 -50 12 -63 -6 -20 -27 -18 -104 5
-140 10 -17 46 -53 79 -80 138 -112 133 -221 -10 -250 -35 -7 -35 -25 -3 -63
26 -31 119 -77 135 -67 6 3 10 17 10 31 0 46 51 289 86 412 63 219 161 469
261 665 51 100 74 129 90 114 3 -4 -28 -95 -70 -204 -137 -358 -210 -600 -262
-871 -35 -182 -37 -170 35 -160 59 8 113 28 124 47 4 5 -8 20 -26 32 -48 32
-58 48 -58 92 0 62 39 91 158 117 116 27 144 40 160 75 21 45 15 52 -55 75
-87 29 -123 61 -123 111 0 80 57 112 220 124 130 10 177 38 187 112 5 43 -12
73 -42 75 -11 0 -61 -3 -112 -7 -111 -9 -136 1 -154 67 -21 80 -6 103 141 226
86 73 67 182 -43 246 -50 29 -101 38 -141 26z"/>
<path d="M9789 7327 c-89 -33 -139 -95 -139 -172 0 -51 8 -61 134 -169 57 -48
75 -97 57 -156 -19 -63 -44 -74 -154 -65 -148 12 -153 10 -151 -61 2 -79 48
-108 184 -119 164 -12 220 -44 220 -124 0 -52 -32 -81 -119 -109 -73 -24 -80
-32 -60 -75 16 -34 52 -51 161 -76 109 -25 143 -46 157 -97 13 -47 -1 -76 -52
-110 l-41 -27 23 -18 c42 -35 178 -57 174 -29 -8 60 -59 306 -84 405 -38 152
-117 387 -209 628 -40 103 -70 190 -67 194 18 17 44 -21 111 -159 162 -332
276 -679 317 -968 7 -47 15 -89 19 -93 12 -14 108 33 135 65 35 42 32 56 -17
68 -63 17 -86 35 -94 75 -10 53 11 89 97 166 92 84 115 128 99 190 -6 22 -18
43 -27 46 -8 3 -39 -1 -67 -11 -62 -19 -86 -20 -120 -4 -56 25 -74 95 -41 158
9 18 50 68 90 111 85 90 105 137 86 201 -19 62 -82 125 -114 113 -7 -3 -32
-39 -56 -80 -66 -116 -112 -139 -181 -92 -59 39 -73 77 -75 192 -1 81 -5 108
-20 135 -39 65 -108 91 -176 67z"/>
<path d="M1234 5782 c-48 -32 -32 -113 36 -184 27 -28 55 -48 68 -48 25 0 80
46 105 89 l18 30 -38 42 c-56 62 -150 97 -189 71z"/>
<path d="M1510 5631 c-26 -58 -76 -109 -139 -145 -45 -25 -45 -25 -18 -31 43
-11 94 3 133 37 45 40 64 77 64 125 0 64 -14 69 -40 14z"/>
<path d="M10665 5771 c-22 -10 -57 -37 -78 -60 -38 -42 -38 -43 -21 -69 26
-42 56 -73 86 -88 27 -14 29 -13 82 38 62 60 86 120 65 160 -7 13 -17 26 -23
30 -19 13 -70 8 -111 -11z"/>
<path d="M10466 5665 c-39 -102 72 -231 181 -210 l36 6 -49 29 c-61 35 -95 70
-132 138 -22 40 -31 49 -36 37z"/>
<path d="M2125 5681 c-22 -10 -50 -29 -62 -42 l-22 -25 23 -49 c13 -28 34 -60
48 -72 l24 -23 53 26 c90 45 140 144 95 188 -21 22 -109 20 -159 -3z"/>
<path d="M1951 5621 c-18 -33 -12 -103 12 -145 29 -52 64 -76 118 -83 l44 -6
-53 56 c-54 58 -91 125 -92 164 0 30 -17 38 -29 14z"/>
<path d="M9727 5682 c-43 -47 5 -141 95 -186 l52 -26 28 26 c15 15 37 47 48
72 l21 44 -23 26 c-53 57 -185 84 -221 44z"/>
<path d="M10030 5599 c-18 -67 -44 -112 -96 -162 l-47 -47 35 0 c76 0 152 90
150 178 0 26 -7 51 -15 60 -14 13 -17 10 -27 -29z"/>
<path d="M1633 5210 c-77 -46 -82 -123 -18 -246 34 -65 45 -96 45 -130 0 -88
-56 -153 -118 -139 -15 3 -61 26 -102 51 -41 24 -82 43 -90 42 -42 -8 -55
-138 -20 -196 26 -42 68 -67 166 -97 99 -30 143 -59 167 -108 36 -73 -12 -138
-112 -152 -67 -9 -75 -16 -68 -60 13 -80 46 -104 188 -135 99 -21 131 -41 154
-95 16 -36 6 -68 -37 -112 -26 -27 -29 -35 -18 -48 19 -23 84 -36 140 -29 42
5 50 10 45 23 -123 321 -185 591 -220 970 -20 214 -20 291 -1 291 19 0 21 -10
41 -150 55 -379 121 -681 206 -931 28 -85 53 -156 55 -158 6 -7 69 38 100 71
18 18 35 43 39 56 6 20 3 22 -35 22 -61 0 -98 23 -106 65 -11 60 3 86 96 175
91 88 106 113 95 157 -7 28 6 27 -142 7 -50 -6 -54 -5 -88 29 -66 66 -40 128
90 214 105 69 145 112 145 156 0 37 -37 100 -61 105 -8 1 -53 -24 -99 -58
-101 -73 -131 -77 -188 -26 -34 32 -37 39 -37 88 0 39 8 71 33 122 54 115 40
181 -49 226 -52 27 -152 27 -196 0z"/>
<path d="M10177 5209 c-81 -43 -97 -120 -45 -222 24 -47 32 -76 32 -119 1 -52
-2 -60 -33 -92 -52 -53 -91 -50 -176 14 -70 53 -98 70 -114 70 -19 0 -61 -74
-61 -107 0 -44 37 -83 141 -153 121 -79 151 -134 112 -201 -26 -43 -64 -55
-132 -41 -92 19 -108 17 -116 -17 -9 -43 14 -79 95 -151 39 -35 78 -76 86 -91
15 -29 18 -76 8 -104 -10 -24 -58 -45 -104 -45 -38 0 -41 -2 -35 -22 4 -13 21
-38 39 -56 31 -33 94 -78 100 -71 2 2 26 72 54 154 84 247 149 534 201 895 27
185 28 190 46 190 20 0 20 -86 0 -296 -34 -356 -95 -639 -189 -883 -20 -51
-36 -94 -36 -96 0 -10 107 -14 139 -5 64 17 69 33 27 80 -48 53 -49 96 -3 145
28 31 44 38 126 55 143 31 177 56 188 139 6 43 5 44 -72 57 -83 14 -117 46
-117 110 0 70 47 109 178 149 141 44 187 91 186 191 0 55 -21 104 -44 104 -6
0 -45 -20 -87 -44 -42 -24 -86 -47 -99 -51 -61 -18 -122 52 -122 139 0 33 11
65 45 129 65 123 59 201 -18 247 -44 27 -148 27 -200 -1z"/>
<path d="M8470 4561 l0 -101 45 0 c52 0 99 21 115 49 18 34 12 88 -13 117 -20
23 -34 28 -85 32 l-62 4 0 -101z"/>
<path d="M7842 4506 c-23 -63 -42 -119 -42 -125 0 -7 30 -11 85 -11 47 0 85 4
85 8 0 5 -19 61 -43 125 l-44 117 -41 -114z"/>
<path d="M2475 3798 c-52 -29 -115 -111 -115 -152 0 -20 67 -73 109 -87 33
-11 36 -10 62 19 34 38 63 129 53 169 -14 57 -59 79 -109 51z"/>
<path d="M2275 3610 c-3 -5 -3 -22 1 -37 23 -94 136 -154 220 -118 l39 17 -55
18 c-77 23 -115 45 -160 90 -22 22 -42 35 -45 30z"/>
<path d="M9445 3790 c-38 -42 -11 -174 45 -225 16 -15 24 -16 52 -6 51 18 108
62 108 83 0 44 -60 127 -112 154 -38 20 -72 17 -93 -6z"/>
<path d="M9699 3587 c-30 -38 -113 -85 -178 -102 l-46 -12 32 -16 c18 -9 44
-17 58 -17 65 0 148 61 166 121 17 55 1 67 -32 26z"/>
<path d="M3607 3686 c-79 -29 -110 -80 -111 -181 -1 -118 47 -183 142 -193 64
-6 115 18 150 71 23 35 27 51 27 116 0 58 -5 86 -21 116 -35 67 -115 97 -187
71z"/>
<path d="M6556 3690 c-41 -13 -94 -68 -106 -110 -13 -47 -13 -119 1 -161 43
-126 200 -147 282 -37 41 55 41 191 -1 247 -41 55 -113 80 -176 61z"/>
<path d="M1882 3385 c0 -74 -26 -161 -58 -196 -25 -28 -10 -34 33 -13 53 26
83 83 83 156 0 50 -4 62 -29 90 l-29 33 0 -70z"/>
<path d="M1623 3430 c-34 -11 -63 -43 -63 -71 0 -25 47 -77 89 -98 20 -11 57
-22 82 -26 44 -7 45 -6 62 31 10 21 21 59 24 85 5 45 4 48 -27 64 -40 20 -124
28 -167 15z"/>
<path d="M10100 3426 c-19 -21 -25 -39 -27 -89 -5 -78 23 -133 80 -161 47 -23
56 -16 28 22 -34 48 -44 82 -50 170 l-6 84 -25 -26z"/>
<path d="M10259 3431 c-66 -22 -72 -29 -66 -83 4 -27 15 -64 25 -81 17 -29 23
-32 61 -29 54 3 111 32 145 73 52 61 14 117 -85 124 -30 3 -66 1 -80 -4z"/>
<path d="M2289 3162 c-39 -20 -58 -38 -76 -72 -44 -82 -9 -163 95 -218 107
-57 160 -143 133 -214 -18 -49 -55 -63 -161 -63 -52 0 -101 -4 -107 -8 -29
-19 -3 -110 46 -158 49 -50 94 -56 206 -30 151 36 217 25 250 -44 24 -51 13
-81 -51 -143 -30 -29 -54 -61 -54 -71 0 -26 53 -69 95 -77 24 -4 65 3 141 26
94 29 111 31 145 21 43 -13 79 -52 79 -86 0 -12 -7 -41 -15 -64 -14 -40 -14
-41 11 -47 30 -8 98 17 139 51 l30 24 -50 42 c-99 83 -333 327 -426 444 -160
201 -349 479 -349 512 0 33 34 0 141 -137 206 -266 310 -383 522 -592 163
-161 213 -205 223 -197 33 27 71 189 45 189 -5 0 -25 -7 -44 -15 -53 -22 -84
-19 -112 11 -40 43 -41 80 -6 181 34 100 39 157 15 191 -22 32 -39 28 -97 -23
-28 -25 -66 -48 -83 -51 -42 -8 -88 17 -104 56 -19 46 -7 100 44 201 64 128
63 186 -4 232 -52 36 -67 25 -115 -77 -51 -110 -75 -131 -136 -123 -77 10
-115 66 -128 190 -9 96 -20 121 -64 147 -47 29 -113 26 -178 -8z"/>
<path d="M9542 3170 c-40 -25 -62 -73 -62 -137 0 -110 -51 -190 -127 -200 -64
-8 -87 12 -138 123 -38 82 -47 94 -69 94 -14 0 -41 -14 -61 -31 -53 -47 -50
-96 15 -225 69 -137 68 -204 -2 -240 -44 -23 -85 -11 -145 41 -58 51 -75 55
-97 23 -24 -33 -20 -82 15 -186 35 -105 34 -143 -6 -186 -28 -30 -59 -33 -112
-11 -50 21 -53 20 -52 -22 0 -39 22 -103 49 -143 15 -22 18 -20 231 191 218
217 316 328 519 589 107 137 140 170 140 137 0 -33 -190 -313 -343 -506 -95
-119 -324 -358 -432 -450 l-50 -43 30 -24 c66 -53 178 -71 160 -26 -3 9 -11
36 -18 59 -10 38 -9 46 9 70 12 16 39 34 60 42 38 13 47 12 147 -19 118 -35
155 -35 201 1 53 42 53 55 -5 107 -58 52 -82 97 -71 133 26 90 93 107 257 68
103 -24 151 -19 197 19 53 45 87 149 56 169 -7 4 -57 8 -110 8 -109 0 -145 16
-160 71 -20 75 22 140 134 205 105 62 137 129 100 212 -39 88 -182 136 -260
87z"/>
<path d="M3642 2317 c-45 -48 -68 -159 -42 -206 20 -39 164 -37 176 2 20 63
-1 160 -44 210 -21 24 -64 21 -90 -6z"/>
<path d="M3540 2039 c0 -22 58 -68 100 -79 60 -16 131 2 165 42 35 42 31 49
-16 33 -54 -19 -145 -19 -199 0 -51 18 -50 18 -50 4z"/>
<path d="M8277 2322 c-29 -32 -47 -90 -47 -149 0 -82 6 -87 90 -87 86 0 100
12 100 86 0 118 -88 211 -143 150z"/>
<path d="M8180 2038 c0 -21 59 -67 99 -78 67 -18 145 7 177 56 22 33 16 36
-31 19 -52 -18 -139 -19 -198 -1 -28 8 -47 10 -47 4z"/>
<path d="M4342 1808 c-8 -8 -10 -44 -5 -128 l6 -116 -32 -27 c-65 -54 -153
-29 -214 60 -46 69 -99 121 -130 128 -97 25 -216 -86 -217 -200 0 -94 71 -144
205 -145 64 0 90 -5 125 -22 83 -42 116 -133 66 -183 -13 -13 -52 -38 -87 -55
-72 -36 -99 -57 -99 -77 0 -24 78 -92 119 -103 67 -18 118 2 212 82 96 80 126
98 169 98 38 0 86 -24 100 -49 15 -30 12 -82 -9 -144 -18 -52 -18 -56 -3 -70
9 -8 32 -18 50 -22 61 -13 92 3 179 91 97 97 136 115 195 91 36 -15 45 -31 62
-110 6 -23 10 -27 29 -21 12 3 33 16 45 28 28 24 75 113 68 125 -3 5 -29 11
-57 15 -77 10 -257 59 -405 109 -264 90 -624 253 -624 283 0 21 16 18 115 -22
158 -62 395 -144 560 -194 168 -51 421 -107 432 -96 11 10 -14 145 -31 171 -9
14 -20 25 -24 24 -4 0 -21 -19 -37 -42 -27 -36 -36 -42 -73 -45 -36 -3 -47 1
-71 26 -31 31 -42 61 -65 187 -13 66 -21 85 -46 108 -55 50 -73 34 -114 -100
-17 -56 -105 -82 -155 -47 -35 25 -51 75 -57 182 -7 137 -12 158 -40 192 -23
26 -32 30 -78 30 -29 0 -57 -5 -64 -12z"/>
<path d="M7526 1790 c-29 -35 -33 -55 -40 -197 -7 -144 -37 -193 -119 -193
-31 0 -45 7 -68 31 -16 17 -29 35 -29 40 0 4 -9 33 -21 64 -24 64 -42 70 -89
28 -25 -23 -33 -42 -46 -108 -26 -138 -35 -164 -67 -191 -23 -19 -39 -24 -71
-22 -34 3 -45 9 -71 45 -16 23 -33 42 -37 42 -4 1 -15 -10 -24 -24 -17 -26
-42 -161 -31 -171 11 -11 264 45 432 96 165 50 402 132 560 194 99 40 115 43
115 22 0 -30 -370 -197 -630 -285 -143 -49 -323 -97 -399 -107 -28 -4 -54 -10
-57 -15 -7 -12 40 -100 68 -126 13 -12 35 -24 48 -25 21 -3 25 2 31 35 9 57
28 85 66 98 55 18 98 -4 188 -97 62 -63 89 -84 116 -89 43 -8 115 10 123 30 3
9 -3 38 -14 66 -22 55 -26 110 -10 140 14 25 62 49 100 49 43 0 75 -19 170
-99 94 -79 144 -99 211 -81 41 11 119 79 119 103 0 20 -27 41 -99 77 -35 17
-74 42 -87 55 -50 50 -17 141 66 183 35 17 61 22 125 22 97 0 155 23 185 72
39 64 17 160 -51 225 -83 78 -172 68 -236 -28 -77 -114 -120 -144 -192 -136
-33 4 -52 12 -70 33 -23 27 -24 32 -17 137 5 77 3 114 -5 123 -7 9 -32 14 -64
14 -47 0 -56 -4 -79 -30z"/>
<path d="M3290 1672 c0 -5 6 -15 14 -21 29 -24 59 -115 60 -183 0 -38 4 -68 7
-68 3 0 14 9 24 20 43 48 32 168 -21 220 -30 30 -84 50 -84 32z"/>
<path d="M3182 1600 c-72 -17 -147 -87 -140 -131 6 -41 52 -64 126 -64 92 1
132 23 132 71 0 19 -10 58 -21 85 -23 52 -30 55 -97 39z"/>
<path d="M8660 1658 c-52 -36 -72 -82 -68 -155 3 -43 10 -68 22 -82 11 -12 22
-21 26 -21 3 0 7 28 7 63 1 71 22 136 59 184 23 30 23 33 6 33 -10 0 -34 -10
-52 -22z"/>
<path d="M8737 1574 c-10 -21 -21 -59 -24 -85 -5 -46 -4 -48 28 -65 50 -27
158 -26 196 2 38 28 41 63 7 103 -33 39 -85 67 -145 76 -44 7 -45 6 -62 -31z"/>
<path d="M5948 1156 c-32 -36 -58 -71 -58 -78 1 -7 27 -41 58 -75 l58 -61 63
69 62 69 -62 70 c-35 38 -63 70 -64 70 0 0 -26 -29 -57 -64z"/>
</g>
</svg>
